PathFileType	4	(X/Y/Z)	C:/Users/beibeiliu/ov580/test_trc/User2\sequence.8_training_dense_left.trc
DataRate	CameraRate	NumFrames	NumMarkers	Units	OrigDataRate	OrigDataStartFrame	OrigNumFrames
120	120	21	19	mm	120	52	77
Frame#	Time	ThumbCMC			ThumbMCP			ThumbIP			ThumbTip			IndexMCP			IndexPIP			IndexTip			MiddleMCP			MiddlePIP			MiddleTip			RingMCP			RingPIP			RingTip			PinkyMCP			PinkyPIP			PinkyTip			BackHand1			BackHand2			BackHand3	
		X0	Y0	Z0	X1	Y1	Z1	X2	Y2	Z2	X3	Y3	Z3	X4	Y4	Z4	X5	Y5	Z5	X6	Y6	Z6	X7	Y7	Z7	X8	Y8	Z8	X9	Y9	Z9	X10	Y10	Z10	X11	Y11	Z11	X12	Y12	Z12	X13	Y13	Z13	X14	Y14	Z14	X15	Y15	Z15	X16	Y16	Z16	X17	Y17	Z17	X18	Y18	Z18	
51	0.425	-239.528	9.26791	-26.7499	-249.962	23.4632	-52.1092	-258.592	31.5526	-82.9383	-267.412	44.1636	-106.179	-258.132	-22.8793	-105.264	-263.576	-23.6076	-132.784	-268.343	-27.1499	-161.466	-252.873	-50.0508	-106.214	-259.016	-53.9673	-134.405	-264.078	-66.9683	-169.558	-239.101	-69.9446	-97.1828	-241.437	-80.83	-124.25	-240.227	-91.2586	-150.027	-215.643	-86.4224	-75.0008	-218.183	-101.741	-100.399	-221.61	-112.167	-120.877	-236.009	-60.0888	-43.6438	-236.456	-58.7488	-11.0811	-253.994	-27.8686	-34.562	
52	0.433333	-222.925	6.36076	-23.9077	-227.681	24.5338	-44.3448	-241.091	43.3968	-78.3299	-241.904	56.0194	-96.6317	-254.059	-9.8351	-98.5312	-261.245	-5.63305	-125.287	-267.632	-4.18485	-154.598	-259.979	-36.8346	-105.875	-267.286	-34.4842	-130.861	-276.677	-36.2526	-163.052	-249.149	-63.0534	-93.4884	-258.1	-65.4316	-121.8	-263.465	-72.233	-151.194	-233.513	-82.6754	-77.6432	-243.128	-93.3684	-103.342	-253.615	-104.65	-124.6	-240.392	-54.9833	-43.5059	-240.616	-56.5587	-7.05128	-247.84	-19.7469	-31.7897	
53	0.441667	-200.886	4.69683	-17.4858	-204.215	25.5634	-42.51	-207.359	47.841	-69.5506	-204.425	59.5993	-86.5908	-240.193	6.75489	-91.6067	-246.47	17.2161	-118.588	-252.189	24.496	-142.163	-254.642	-11.9109	-100.244	-265.362	-8.27875	-128.55	-275.832	-5.83166	-156.708	-256.272	-39.3788	-93.1042	-266.299	-42.547	-117.424	-274.596	-39.3085	-144.283	-248.429	-66.2987	-77.0173	-262.574	-70.0967	-102.071	-276.072	-73.4859	-121.927	-245.193	-48.2929	-36.9719	-242.344	-47.7597	-7.41377	-235.67	-10.0972	-27.3985	
54	0.45	-182.122	-4.29285	-18.7431	-175.884	12.7931	-37.4742	-171.183	38.4539	-62.7645	-164.628	50.6982	-80.0134	-219.202	16.7101	-86.5933	-223.231	32.5796	-113.225	-226.75	41.9974	-133.882	-243.41	1.66535	-92.2003	-249.749	15.7199	-121.636	-259.683	26.2244	-148.667	-254.303	-24.0497	-86.8614	-266.868	-17.4326	-113.599	-272.077	-8.3967	-138.516	-256.945	-48.6343	-75.7477	-271.111	-45.5267	-97.1321	-284.051	-40.7263	-118.211	-242.891	-35.0253	-35.7648	-237.507	-41.4464	-3.77906	-216.774	-7.47696	-22.3747	
55	0.458333	-168.097	-17.8487	-16.4257	-154.762	1.52502	-37.1165	-144.882	19.6421	-61.2162	-130.296	35.1283	-77.8149	-199.242	15.5165	-82.0716	-198.831	30.5641	-108.526	-200.75	44.2294	-131.738	-223.809	12.535	-86.7201	-228.374	28.3739	-114.739	-238.163	38.2992	-139.47	-241.937	-7.45625	-79.1762	-255.997	3.90484	-107.67	-260.91	13.0797	-131.228	-256.552	-32.8243	-67.6176	-267.584	-24.3615	-87.9206	-286.303	-15.5163	-110.191	-231.84	-23.2519	-30.6281	-228.195	-27.4972	-0.774491	-202.216	-6.11046	-15.797	
56	0.466667	-155.978	-22.5554	-14.2407	-138.699	-10.8498	-34.4444	-122.855	3.42771	-60.7433	-108.418	8.62379	-77.0394	-179.021	10.1101	-84.0839	-175.323	19.435	-109.213	-174.468	29.9362	-132.618	-206.573	12.617	-87.6344	-210.167	23.7901	-117.048	-216.72	35.0179	-145.1	-230.034	-2.54641	-75.8822	-241.221	8.59633	-104.878	-243.761	18.1373	-132.252	-245.917	-22.9796	-59.7607	-259.477	-13.838	-80.4905	-276.593	-2.41135	-100.832	-225.689	-13.2979	-28.7282	-220.112	-16.8096	7.67575	-185.742	-5.34902	-18.0939	
57	0.475	-150.648	-28.3375	-7.81995	-134.808	-22.3629	-31.4707	-119.743	-14.7097	-63.717	-104.022	-12.6718	-80.4125	-169.877	-6.02316	-89.1046	-169.057	-1.57662	-114.514	-165.716	4.24573	-140.875	-198.933	-2.41112	-90.9366	-200.366	1.03686	-117.59	-204.419	8.60814	-152.279	-223.15	-10.2495	-81.501	-229.976	-5.52304	-106.103	-234.838	-2.85987	-131.52	-242.761	-26.6898	-57.5308	-258.258	-20.1691	-79.707	-269.469	-10.0901	-95.2786	-217.419	-15.5234	-24.7158	-208.363	-10.0853	6.39937	-179.404	-6.48998	-15.5907	
58	0.483333	-145.892	-32.6116	-7.59963	-134.168	-33.0795	-33.1348	-117.515	-30.9121	-61.2935	-102.976	-31.678	-83.1876	-171.621	-24.5766	-88.2276	-170.132	-25.7359	-114.873	-168.853	-23.6192	-146.162	-199.521	-20.9745	-90.4085	-200.713	-21.8813	-124.861	-204	-18.5699	-154.404	-224.227	-24.8766	-77.9245	-232.742	-25.0172	-106.084	-236.638	-24.5882	-130.885	-244.382	-35.0149	-55.3484	-255.131	-33.0926	-76.6215	-269.164	-22.7204	-95.5617	-212.422	-18.8907	-28.1133	-207.961	-11.0976	6.72427	-178.529	-11.5745	-19.5692	
59	0.491667	-148.619	-40.3965	-10.1409	-138.907	-43.6779	-37.3026	-125.297	-45.2881	-67.3882	-114.497	-49.6399	-90.5203	-178.151	-35.0864	-94.0297	-176.771	-38.6905	-120.576	-182.413	-39.6394	-143.279	-208.399	-27.5746	-93.4303	-210.191	-30.3499	-120.183	-219.853	-29.6483	-150.708	-232.552	-28.4398	-78.8567	-240.132	-29.7187	-105.108	-250.755	-28.6942	-132.537	-249.295	-36.6955	-49.9547	-266.394	-32.0161	-74.4211	-275.452	-25.3965	-90.1848	-219.173	-19.6054	-21.6468	-209.439	-9.99079	5.8443	-176.73	-16.6043	-22.5164	
60	0.5	-154.145	-43.1488	-14.804	-147.454	-46.6786	-41.8431	-135.716	-48.5504	-78.0411	-128.821	-53.4864	-97.2094	-192.052	-34.7711	-89.7393	-195.616	-37.1174	-117.811	-201.755	-36.9421	-148.222	-215.452	-26.0578	-91.8282	-225.083	-27.8551	-117.582	-231.706	-24.1247	-151.464	-242.12	-24.6672	-74.45	-255.195	-24.2737	-98.6666	-262.512	-23.4796	-124.363	-255.943	-31.2973	-47.2698	-274.229	-25.7598	-65.0733	-285.584	-13.9874	-79.9368	-222.08	-18.8405	-25.1188	-207.904	-10.7336	7.70148	-186.455	-18.7549	-21.9443	
61	0.508333	-157.937	-40.8039	-19.806	-150.476	-42.1818	-47.0491	-142.602	-42.1001	-80.1686	-134.754	-44.0512	-104.177	-202.324	-22.3804	-89.3269	-207.129	-21.7127	-117.942	-210.203	-19.4096	-145.155	-225.06	-13.911	-90.1826	-236.678	-11.2796	-117.653	-245.037	-4.61637	-145.65	-250.346	-13.9141	-67.5993	-260.961	-9.55009	-93.183	-275.642	-4.05227	-118.174	-264.068	-19.8815	-41.0971	-279.483	-11.6336	-59.4443	-290.928	-0.42963	-74.8227	-227.159	-13.9747	-21.0928	-211.194	-10.0859	8.13509	-183.557	-13.2251	-21.2145	
62	0.516667	-158.878	-33.0832	-18.6942	-152.626	-27.5533	-49.4888	-146.423	-23.9617	-78.4634	-139.746	-20.447	-104.73	-201.369	0.107546	-88.083	-205.565	5.53492	-111.932	-215.326	13.1795	-140.54	-224.516	7.19098	-82.3572	-234.063	15.9046	-112.763	-247.935	26.3855	-136.333	-249.67	3.79656	-65.123	-258.313	12.2081	-87.0892	-273.806	21.5967	-113.919	-261.827	-9.12831	-38.589	-279.113	3.02693	-54.726	-292.608	19.3006	-68.0201	-223.162	-5.56492	-13.4342	-209.896	-7.81597	12.6619	-186.659	-5.9461	-16.7093	
63	0.525	-158.746	-25.3252	-16.0918	-148.053	-15.9133	-42.7482	-141.402	-5.92177	-72.9699	-134.052	-0.520375	-97.3957	-194.402	16.2579	-80.9941	-198.542	27.914	-107.603	-203.812	38.6821	-133.326	-220.696	22.9439	-78.8298	-226.776	33.7701	-104.798	-235.758	46.7357	-133.602	-242.243	13.4965	-61.9112	-252.475	26.4459	-87.3171	-264.997	37.0877	-110.783	-255.384	-3.57317	-41.5449	-274.626	9.99296	-57.3245	-284.55	27.9082	-73.9157	-222.326	-1.74894	-14.393	-216.188	-6.08292	18.2622	-186.039	2.24276	-13.769	
64	0.533333	-156.26	-20.6704	-11.4751	-138.302	-12.2743	-33.2387	-126.368	5.00607	-66.1121	-119.114	7.93613	-85.8301	-183.133	24.9733	-78.013	-182.769	38.4841	-103.256	-182.801	48.61	-125.08	-206.624	29.3263	-76.8528	-214.224	42.8551	-105.933	-221.453	56.2761	-133.022	-235.076	19.1916	-66.253	-241.14	30.985	-88.8115	-247.719	43.3801	-116.363	-247.489	-1.52508	-51.4185	-263.506	11.6292	-68.743	-276.57	25.5106	-81.4329	-220.551	-0.805178	-16.2105	-214.261	-8.69875	14.0919	-182.518	1.62592	-10.4698	
65	0.541667	-148.056	-20.0955	-6.51277	-129.115	-8.86501	-29.928	-111.998	-1.14288	-52.9524	-98.9544	6.36305	-73.683	-168.135	22.4669	-71.1098	-166.712	36.9386	-99.8477	-164.887	50.3433	-125.413	-194.179	28.0896	-77.3154	-201.418	40.7609	-106.34	-206.738	52.4034	-131.521	-219.213	16.5547	-71.7384	-227.678	28.0816	-96.0083	-235.016	38.4453	-121.287	-238.413	-3.96214	-60.3801	-253.819	3.28848	-78.3977	-259.174	19.3955	-96.3238	-213.243	-4.18352	-17.4022	-213.707	-7.36013	10.7498	-179.808	2.48634	-6.8748	
66	0.55	-140.423	-21.9472	-3.85112	-119.067	-16.0847	-22.0503	-98.7489	-8.31712	-48.0005	-80.3918	-4.96546	-64.0707	-159.037	13.3367	-72.5501	-154.349	25.2181	-100.221	-150.388	35.4842	-127.345	-190.082	17.7993	-81.111	-189.516	27.8308	-106.297	-196.459	38.8716	-139.498	-215.147	3.74852	-76.1317	-224.74	12.1263	-99.6613	-227.018	19.8166	-125.021	-232.383	-18.9598	-60.3781	-243.299	-13.7459	-84.8429	-257.225	-5.53396	-103.386	-207.728	-8.74139	-19.4882	-208.998	-13.2422	8.3097	-174.619	-0.623841	-7.44935	
67	0.558333	-135.501	-23.4302	-3.59268	-114.255	-23.9018	-20.7675	-88.2483	-18.2609	-44.079	-71.8346	-19.0476	-61.4632	-156.92	0.56223	-78.5272	-148.325	8.28587	-104.524	-142.763	16.395	-130.933	-186.445	0.937524	-85.4359	-187.924	9.64842	-115.962	-192.889	17.0356	-143.95	-211.229	-13.1065	-80.3918	-219.145	-9.02078	-108.36	-223.237	-3.96408	-134.355	-230.348	-34.112	-67.0997	-242.269	-34.5618	-89.8947	-252.096	-29.8846	-112.586	-206.073	-15.7966	-23.3964	-204.808	-17.5777	4.63558	-171.963	-6.04855	-11.8459	
68	0.566667	-132.958	-28.7518	-3.01507	-109.486	-31.6896	-19.6253	-87.0717	-31.7318	-40.2523	-64.5827	-33.8536	-54.8483	-151.106	-10.1383	-83.9165	-143.835	-4.02178	-112.36	-141.372	-1.07084	-136.552	-183.828	-10.6037	-89.2915	-185.815	-7.22095	-117.956	-186.301	-0.621769	-147.661	-206.581	-25.7878	-81.9931	-215.234	-25.8769	-109.369	-222.809	-24.3592	-134.233	-229.069	-46.7186	-65.5396	-238.028	-49.0827	-90.2308	-246.822	-47.3443	-111.45	-203.045	-23.0889	-29.541	-206.301	-19.8975	3.38201	-171.371	-12.6578	-16.085	
69	0.575	-136.316	-31.544	-2.74845	-110.672	-35.1857	-22.3702	-84.1501	-35.8861	-41.0598	-63.823	-40.6847	-52.0595	-147.611	-12.114	-83.538	-142.803	-8.65653	-112.777	-139.443	-5.87579	-137.7	-184.057	-12.8655	-92.3774	-186.269	-9.31408	-118.931	-187.019	-4.17929	-151.689	-210.248	-29.6871	-82.9277	-217.197	-29.1918	-107.142	-219.59	-27.7991	-135.672	-229.572	-48.5524	-66.3887	-237.777	-52.7625	-89.2551	-249.321	-53.0945	-106.987	-205.021	-23.745	-25.6354	-206.189	-21.8126	7.12298	-171.033	-13.4568	-15.0954	
70	0.583333	-134.185	-30.6606	-3.17199	-115.316	-37.3958	-22.1619	-85.6208	-38.3746	-41.515	-65.3014	-41.6006	-53.9897	-149.78	-10.9579	-83.2918	-142.86	-7.49868	-106.49	-141.345	-4.269	-139.548	-181.916	-12.291	-89.1943	-187.069	-8.75998	-118.99	-185.704	-3.52183	-149.583	-211.858	-27.8401	-81.6498	-216.573	-26.9787	-111.839	-223.354	-25.8247	-140.26	-232.189	-48.1615	-66.7862	-242.767	-54.2619	-85.1166	-251.661	-52.9276	-111.324	-207.118	-23.5541	-28.1107	-202.071	-20.5809	5.86846	-171.363	-12.8987	-14.2624	
71	0.591667	-134.949	-29.417	-6.77495	-113.232	-36.7472	-19.0368	-88.8108	-38.7248	-42.6373	-65.2496	-42.0805	-53.3222	-155.619	-11.9328	-85.0543	-146.16	-7.38644	-111.656	-142.483	-3.59232	-139.863	-184.41	-10.611	-88.2475	-184.863	-6.9013	-119.272	-188.425	-1.76966	-152.855	-210.397	-26.6347	-84.9325	-217.288	-26.7411	-106.717	-224.563	-24.9213	-139.76	-229.878	-48.0762	-62.5616	-241.818	-53.1269	-87.6829	-253.756	-50.8467	-110.486	-206.72	-23.2458	-29.5027	-205.14	-19.3058	4.42091	-169.13	-10.8091	-16.302	
